<!-- Generated by IcoMoon.io -->
<svg version="1.1" xmlns="http://www.w3.org/2000/svg" width="32" height="32" viewBox="0 0 32 32">
<path d="M27.072 4.768c0.511-0.444 1.182-0.714 1.917-0.714 0.012 0 0.025 0 0.037 0l-0.002-0c0.001 0 0.002 0 0.002 0 0.746 0 1.426 0.279 1.943 0.739l-0.003-0.003c0.495 0.44 0.813 1.070 0.838 1.775l0 0.004c0 0.016 0.001 0.035 0.001 0.053 0 0.689-0.282 1.312-0.736 1.761l-0 0-14.896 17.197c-0.254 0.251-0.556 0.454-0.89 0.595l-0.018 0.007c-0.336 0.141-0.726 0.223-1.135 0.223-0.764 0-1.462-0.286-1.992-0.757l0.003 0.003-9.878-9.12c-0.268-0.23-0.486-0.508-0.643-0.823l-0.007-0.015c-0.155-0.31-0.246-0.676-0.246-1.063 0-0.723 0.317-1.371 0.819-1.815l0.003-0.002c0.262-0.241 0.573-0.434 0.915-0.563l0.019-0.006c0.312-0.12 0.672-0.189 1.049-0.189 0.411 0 0.803 0.082 1.159 0.232l-0.020-0.007c0.353 0.146 0.655 0.348 0.909 0.599l-0-0 7.818 7.213 12.966-15.248c0.023-0.026 0.047-0.050 0.073-0.073l0.001-0.001h-0.006z"></path>
</svg>
